<?xml version="1.0" encoding="utf-8"?>
<!-- Generator: Adobe Illustrator 16.0.0, SVG Export Plug-In . SVG Version: 6.00 Build 0)  -->
<!DOCTYPE svg PUBLIC "-//W3C//DTD SVG 1.1//EN" "http://www.w3.org/Graphics/SVG/1.1/DTD/svg11.dtd">
<svg version="1.1" id="Layer_1" xmlns="http://www.w3.org/2000/svg" xmlns:xlink="http://www.w3.org/1999/xlink" x="0px" y="0px"
	 width="314px" height="310px" viewBox="0 0 314 310" enable-background="new 0 0 314 310" xml:space="preserve">
<path fill-rule="evenodd" clip-rule="evenodd" fill="#A1DAF8" d="M288.856,159.007l0.154,0.041
	c1.613-5.365,2.482-11.052,2.482-16.942c0-32.452-26.317-58.77-58.77-58.77c-34.936,0-62.163,30.814-58.423,65.188l-11.22-18.477
	c5.724-33.284,34.727-58.619,69.643-58.619c39.026,0,70.677,31.65,70.677,70.677c0,8.538-1.517,16.722-4.293,24.299l-34.053,123.193
	l-15.849,13.29L278.73,195.75l3.298-11.968L288.856,159.007z"/>
<path fill-rule="evenodd" clip-rule="evenodd" fill="#B2B2B2" d="M139.47,155.392l0.153,0.044c-1.347,5.438-3.5,10.773-6.502,15.841
	c-16.546,27.917-52.604,37.139-80.521,20.593c-27.917-16.546-37.139-52.604-20.593-80.521
	c16.546-27.917,52.604-37.139,80.521-20.593c10.512,6.23,17.84,15.495,23.205,25.515c3.152,5.889,4.604,7.922,7.839,13.436
	l4.309-16.928c-6.729-11.696-6.02-18.479-29.282-32.266c-23.262-13.787-76.937-8.808-96.835,24.766
	c-19.898,33.573-8.808,76.937,24.766,96.835s76.937,8.808,96.835-24.766c4.353-7.345,7.221-15.158,8.696-23.092l1.877-6.883
	l16.337,27.845c0.941,1.771,1.954,3.499,3.038,5.178l0.03,0.051l0.002-0.002c12.591,19.458,34.482,32.339,59.378,32.339
	c15.055,0,29.01-4.713,40.475-12.739l6.29-22.349c-10.737,14.086-27.69,23.181-46.765,23.181c-20.135,0-37.905-10.132-48.496-25.572
	l-0.002,0.002l-0.023-0.04c-0.299-0.438-0.595-0.879-0.882-1.325l-2.45-4.161c-0.22-0.411-0.435-0.826-0.646-1.244l-18.055-30.541
	l-0.001,0.013l-3.878-6.588L190.3,14.06l-11.581-2.659L149.493,118.62l-3.265,11.977L139.47,155.392z"/>
</svg>
